<svg id="Seeds_Logo" data-name="Seeds Logo" xmlns="http://www.w3.org/2000/svg" viewBox="0 0 1350.39 1350.39"><defs><style>.cls-1{fill:#004a4f;}.cls-2{fill:#73e65c;}.cls-3{fill:#00a500;}.cls-4{fill:#fff;}.cls-5{fill:#24f3ff;}</style></defs><title>Seeds_Icon_190626</title><circle id="White" class="cls-1" cx="675.2" cy="675.2" r="675.03"/><path class="cls-2" d="M1111.2,1133.83c0,4.33.12,8.63.31,12.92,3.61,2.3,7.28,4.55,11,6.72,135.58,78.28,308.94,31.82,387.22-103.76A282.08,282.08,0,0,0,1547.48,895a282.12,282.12,0,0,0-152.81-44.67C1238.11,850.37,1111.2,977.28,1111.2,1133.83Z" transform="translate(-458.66 -458.66)"/><path class="cls-2" d="M1156.58,1133.82c0-4.33-.11-8.64-.3-12.92-3.62-2.31-7.29-4.56-11-6.72C1009.67,1035.9,836.3,1082.35,758,1217.93a282.19,282.19,0,0,0-37.71,154.68,282.18,282.18,0,0,0,152.81,44.67C1029.67,1417.28,1156.58,1290.37,1156.58,1133.82Z" transform="translate(-458.66 -458.66)"/><path class="cls-3" d="M1509.74,1218c-74.85-129.65-236.66-177.77-369.22-113.29,2.49,1.57,5,3.11,7.58,4.59a286.61,286.61,0,0,1,121.84,138c.36.86,4.35,10.91,4.52,11.37a286.83,286.83,0,0,1,18.17,94.61c0,.45,0,12.34,0,12.83a287,287,0,0,1-2.39,31.34,284,284,0,0,0,257.22-24.81A282.14,282.14,0,0,0,1509.74,1218Z" transform="translate(-458.66 -458.66)"/><path class="cls-3" d="M1127.23,1163q-3.74-2.36-7.55-4.57a286.52,286.52,0,0,1-121.84-138c-.37-.87-4.35-10.91-4.52-11.37a286.78,286.78,0,0,1-18.18-94.6c0-.48,0-12.36,0-12.84a286.68,286.68,0,0,1,2.4-31.32A283.91,283.91,0,0,0,720.26,895,282.11,282.11,0,0,0,758,1049.7C832.84,1179.36,994.66,1227.49,1127.23,1163Z" transform="translate(-458.66 -458.66)"/><path class="cls-4" d="M1292.63,1353.33a286.83,286.83,0,0,0-18.17-94.61c-.17-.46-4.16-10.51-4.52-11.37a286.61,286.61,0,0,0-121.84-138,232.07,232.07,0,0,1-85.76-86.21c-4.17-7.59-12-24.89-15-31.75A232.36,232.36,0,0,1,1031.89,903,229.84,229.84,0,0,1,1052,813.4c2.93-6.27,10.47-20.63,11-21.61l2.84-4.92,0,0a229.26,229.26,0,0,1,68-71.31A232.33,232.33,0,0,1,1235.6,895.77l.17,3.26a284,284,0,0,1,54.35-28.69,291.83,291.83,0,0,0-44.5-120.45A286.11,286.11,0,0,0,1148,657.56c-3.64-2.1-7.43-4.16-11.56-6.31l-2.62-1.36-2.61,1.36c-4.14,2.15-7.92,4.21-11.56,6.31a286.56,286.56,0,0,0-121.84,138c-.18.43-4.37,11-4.52,11.37a286.82,286.82,0,0,0-18.18,94.59c0,.48,0,12.36,0,12.84a286.78,286.78,0,0,0,18.18,94.6c.17.46,4.15,10.5,4.52,11.37a286.52,286.52,0,0,0,121.84,138,232.11,232.11,0,0,1,85.75,86.21c4.19,7.61,12,24.89,15,31.75a232.36,232.36,0,0,1,15.44,88.31,229.83,229.83,0,0,1-20.09,89.64c-2.93,6.26-10.47,20.63-11,21.61l-2.83,4.91h0a229,229,0,0,1-68,71.33A232.28,232.28,0,0,1,1032.18,1372l-.18-3.33a283.74,283.74,0,0,1-54.36,28.68,291.83,291.83,0,0,0,44.52,120.52,286,286,0,0,0,97.59,92.33c3.64,2.1,7.42,4.16,11.56,6.31l2.61,1.36,2.61-1.36c4.14-2.14,7.92-4.21,11.57-6.31a286.57,286.57,0,0,0,121.83-138c.28-.66,4.5-11.29,4.53-11.37a286.82,286.82,0,0,0,18.17-94.6C1292.64,1365.67,1292.64,1353.78,1292.63,1353.33Z" transform="translate(-458.66 -458.66)"/><path class="cls-5" d="M1292.63,1353.33a286.83,286.83,0,0,0-18.17-94.61c-.17-.46-4.16-10.51-4.52-11.37a286.61,286.61,0,0,0-121.84-138,232.07,232.07,0,0,1-85.76-86.21c-4.17-7.59-12-24.89-15-31.75A232.36,232.36,0,0,1,1031.89,903,229.84,229.84,0,0,1,1052,813.4c2.93-6.27,10.47-20.63,11-21.61l2.84-4.92,0,0a229.26,229.26,0,0,1,68-71.31A232.33,232.33,0,0,1,1235.6,895.77l.17,3.26a284,284,0,0,1,54.35-28.69,291.83,291.83,0,0,0-44.5-120.45A286.11,286.11,0,0,0,1148,657.56c-3.64-2.1-7.43-4.16-11.56-6.31l-2.62-1.36-2.61,1.36c-4.14,2.15-7.92,4.21-11.56,6.31a286.56,286.56,0,0,0-121.84,138c-.18.43-4.37,11-4.52,11.37a286.82,286.82,0,0,0-18.18,94.59c0,.48,0,12.36,0,12.84a286.78,286.78,0,0,0,18.18,94.6c.17.46,4.15,10.5,4.52,11.37a286.52,286.52,0,0,0,121.84,138,232.11,232.11,0,0,1,85.75,86.21c4.19,7.61,12,24.89,15,31.75a232.36,232.36,0,0,1,15.44,88.31,229.83,229.83,0,0,1-20.09,89.64c-2.93,6.26-10.47,20.63-11,21.61l-2.83,4.91h0a229,229,0,0,1-68,71.33A232.28,232.28,0,0,1,1032.18,1372l-.18-3.33a283.74,283.74,0,0,1-54.36,28.68,291.83,291.83,0,0,0,44.52,120.52,286,286,0,0,0,97.59,92.33c3.64,2.1,7.42,4.16,11.56,6.31l2.61,1.36,2.61-1.36c4.14-2.14,7.92-4.21,11.57-6.31a286.57,286.57,0,0,0,121.83-138c.28-.66,4.5-11.29,4.53-11.37a286.82,286.82,0,0,0,18.17-94.6C1292.64,1365.67,1292.64,1353.78,1292.63,1353.33Z" transform="translate(-458.66 -458.66)"/></svg>